<svg xmlns="http://www.w3.org/2000/svg" viewBox="0 0 202.07 120.69"><title>GASGAS logo - Brandlogos.net</title><path d="M463.22,554.14l2,8.06H457.5Zm-2.64-6.93-20,25.13h9.76l3.19-4.5h13.19l1.14,4.5h9.48l-7-25.13Z" transform="translate(-410.97 -451.66)" style="fill:#cb0d25"/><path d="M506.18,556.87H490.75a1.44,1.44,0,0,1-1.37-1.89l.16-.49a2.54,2.54,0,0,1,2.42-1.76h19.76l0-1.64a4,4,0,0,0-4.19-3.89H489.8c-2.18,0-6.61,1.41-7.52,4.63l-1.43,4.88c-1.2,3.58,1.19,5.48,3.56,5.48H500.2a1.57,1.57,0,0,1,1.5,2.05l-.17.53a2.85,2.85,0,0,1-2.65,2H478.44l-.13,2.34a3.51,3.51,0,0,0,3.6,3.21h19.74a9.14,9.14,0,0,0,5.84-2.87c1.3-1.52,2.7-6.37,2.72-8.67a4,4,0,0,0-4-3.93" transform="translate(-410.97 -451.66)" style="fill:#cb0d25"/><path d="M422.29,555.3a3.7,3.7,0,0,1,3.52-2.56h20.07l0-1.64a4,4,0,0,0-4.2-3.89H424c-3.27,0-7.7,2.29-8.6,5.07l-4.13,12.84c-.9,2.78.27,7.22,4.44,7.22h19.44c3.88,0,6.39-3.47,7.29-6.25l2.94-9.22H427.93l-1.8,5.64h9.67l-.72,2.16a3.62,3.62,0,0,1-3.12,2.12H421.28a2,2,0,0,1-1.9-2.61Z" transform="translate(-410.97 -451.66)" style="fill:#cb0d25"/><path d="M569.14,572.34h9.48l-7-25.13H561.9l-20,25.13h9.76l3.2-4.5H568ZM558.81,562.2l5.72-8.06,2,8.06Z" transform="translate(-410.97 -451.66)" style="fill:#cb0d25"/><path d="M607.5,556.87H592.07A1.44,1.44,0,0,1,590.7,555l.16-.49a2.54,2.54,0,0,1,2.42-1.76H613l0-1.64a4,4,0,0,0-4.19-3.89H591.12c-2.18,0-6.61,1.41-7.52,4.63l-1.43,4.88c-1.2,3.58,1.18,5.48,3.56,5.48h15.79a1.57,1.57,0,0,1,1.5,2.05l-.18.53a2.85,2.85,0,0,1-2.65,2H579.76l-.13,2.34a3.51,3.51,0,0,0,3.6,3.21H603a9.14,9.14,0,0,0,5.84-2.87c1.3-1.52,2.7-6.37,2.72-8.67a4,4,0,0,0-4-3.93" transform="translate(-410.97 -451.66)" style="fill:#cb0d25"/><path d="M523.61,555.3a3.7,3.7,0,0,1,3.52-2.56h20.07l0-1.64a4,4,0,0,0-4.2-3.89H525.3c-3.27,0-7.7,2.29-8.6,5.07l-4.13,12.84c-.9,2.78.27,7.22,4.44,7.22h19.44c3.88,0,6.39-3.47,7.29-6.25l2.94-9.22H529.25l-1.8,5.64h9.67l-.72,2.16a3.62,3.62,0,0,1-3.12,2.12H522.6a2,2,0,0,1-1.9-2.61Z" transform="translate(-410.97 -451.66)" style="fill:#cb0d25"/><path d="M508.46,476.85a8.39,8.39,0,0,0-8,5.79l-6.6,20.13a4.54,4.54,0,0,0,4.31,5.92h24.22c2.73,0,6.22-2.18,7.07-4.8l1.64-4.89H509.19l4.08-12.79h39.54l-6.66,20.9c-2.05,6.32-7.73,14.18-16.54,14.18H457.5c1.48,6.68,6.2,12.64,15,12.64h63.64c12.71,0,20.91-11.36,23.87-20.47l11.77-36.62Z" transform="translate(-410.97 -451.66)" style="fill:#cb0d25"/><path d="M484.81,475.8c2.05-6.32,12.08-11.51,19.51-11.51h68.34c-1.48-6.68-6.2-12.64-15-12.64H499.58c-10.72,0-25.2,7.49-28.16,16.61l-13,40.44h15.81Z" transform="translate(-410.97 -451.66)" style="fill:#cb0d25"/></svg>