<?xml version="1.0" encoding="UTF-8"?><svg id="uuid-9882a2e5-acbc-4b72-b19a-fd40eca0845f" xmlns="http://www.w3.org/2000/svg" viewBox="0 0 407.26 223.11">
<title>Kawasaki logo - Brandlogos.net</title><path d="M122.15,67.61c0-.24,20.29-.47,50.61,2.22,28.3,2.5,54.39,12.85,61.75,15.76,6.9,2.75,26.96,12.07,27.11,25.91.16,15.28-23.21,23.76-23.21,23.76h168.85c-.13-8.96-4.2-17.56-4.2-17.56-7.87-17.9-29.11-29.83-29.11-29.83-31.05-17.44-58.9-19.95-58.9-19.95,19.98-2.5,30.77-6.26,42.18-11.06,22.56-9.48,36.28-24.07,42.96-36.06,6.42-11.47,6.85-20.79,6.85-20.79h-164.07c23.17,11.47,9.3,27.62,9.3,27.62-5.48,6.93-12.77,12.95-27.15,20.08-38.74,18.18-102.91,16.46-102.91,16.46l-.03-.06V0H.31v135.19h121.87v-67.54l-.04-.04Z" style="fill:#231f20;"/><polygon points="107.44 175.9 126.28 175.9 132.68 197.01 139.33 175.9 155.07 175.9 161.15 197.01 168.16 175.9 185.97 175.9 172.12 220.91 154.47 220.91 147.38 198.87 141.3 220.91 122.99 220.91 107.44 175.9" style="fill:#231f20;"/><path d="M234.05,205.19h16.56s-.09,6.77,7.08,6.77c5.75,0,5.58-3.37,5.58-3.37,0,0,.17-3.47-6.16-4.48-7.1-1.07-22.2-2.36-22.2-14.94,0,0-1.37-15.42,21.86-15.42,16.47,0,22.04,7.24,22.04,15.68h-15.78c-.33-2.45-2.37-5-5.83-5s-5.39,1.27-5.39,2.88c0,2.1,1.34,2.94,10.97,4.21,11.05,2.27,17.4,5.07,17.4,16.48s-11.91,15.11-22.63,15.11-23.48-3.56-23.48-17.92Z" style="fill:#231f20;"/><path d="M300.11,191.33h-16.51s-3.5-18.18,24.21-18.18c0,0,20.55-1.18,21.65,14.78,1.1,15.96-1.13,26.81,3.63,33.02h-17.68s-1.61-2.11-2.45-4.14c0,0-4.73,5.57-14.87,5.57s-15.83-5.91-15.83-13.51,4.42-13.18,18.54-15.71c5.65-1.02,10.72-1.69,10.99-4.81.25-3.12-4.05-3.72-5.15-3.72,0,0-6.46-.47-6.52,6.71ZM301.9,203.97c-3.88,1.69-1.95,4.64-1.95,4.64,0,0,1.95,3.2,6.6,2.03,6.67-1.77,6.16-10.64,6.16-10.64,0,0-6.92,2.28-10.81,3.97Z" style="fill:#231f20;"/><rect x="388.11" y="158.65" width="18.16" height="12.68" style="fill:#231f20;"/><rect x="388.11" y="175.89" width="18.16" height="45.02" style="fill:#231f20;"/><polygon points="352.73 220.93 334.59 220.93 334.59 158.63 352.73 158.63 352.73 186.59 361.94 175.88 383.31 175.88 367.51 192.68 385.97 220.91 365.03 220.91 355.05 205.74 352.73 208.24 352.73 220.93" style="fill:#231f20;"/><polygon points="0 158.64 18.92 158.64 18.92 177.61 37.84 158.64 61.49 158.64 37.35 183.46 63.29 220.92 38.68 220.92 23.8 197.44 18.91 202.49 18.91 220.93 0 220.93 0 158.64" style="fill:#231f20;"/><path d="M78.92,191.33h-16.49s-3.5-18.18,24.2-18.18c0,0,20.56-1.18,21.66,14.78,1.09,15.96-1.13,26.81,3.63,33.02h-17.68s-1.59-2.11-2.45-4.14c0,0-4.72,5.57-14.86,5.57s-15.84-5.91-15.84-13.51,4.41-13.18,18.54-15.71c5.66-1.02,10.73-1.69,10.99-4.81.25-3.12-4.05-3.72-5.16-3.72,0,0-6.46-.47-6.53,6.71ZM80.72,203.97c-3.88,1.69-1.94,4.64-1.94,4.64,0,0,1.94,3.2,6.59,2.03,6.68-1.77,6.17-10.64,6.17-10.64,0,0-6.93,2.28-10.82,3.97Z" style="fill:#231f20;"/><path d="M201.76,191.33h-16.49s-3.51-18.18,24.21-18.18c0,0,20.54-1.18,21.63,14.78,1.1,15.96-1.12,26.81,3.64,33.02h-17.69s-1.6-2.11-2.43-4.14c0,0-4.72,5.57-14.86,5.57s-15.84-5.91-15.84-13.51,4.41-13.18,18.54-15.71c5.66-1.02,10.72-1.69,10.98-4.81.26-3.12-4.05-3.72-5.14-3.72,0,0-6.46-.47-6.53,6.71ZM203.55,203.97c-3.88,1.69-1.94,4.64-1.94,4.64,0,0,1.94,3.2,6.59,2.03,6.67-1.77,6.16-10.64,6.16-10.64,0,0-6.93,2.28-10.81,3.97Z" style="fill:#231f20;"/></svg>