<?xml version="1.0" encoding="UTF-8"?><svg id="Layer_1" xmlns="http://www.w3.org/2000/svg" viewBox="0 0 435.96 292.17"><defs><style>.cls-1{fill:#004ea2;}.cls-2{fill:#e60012;}</style></defs><path class="cls-2" d="M314.53,134.6s-18.12,5.25-53.13,26.77c-31.43,19.31-43.7,32.31-43.7,32.31l-96.93-66.93s40.74-30,74.82-7.03l45.67,31.34,5.62-3.65L120.78,59.08s18.15-5.24,53.13-26.76C205.34,13,217.69,0,217.69,0l96.85,66.96s-40.77,29.98-74.81,7.02l-45.7-31.35-5.53,3.67,126.02,88.31Z"/><polygon class="cls-1" points="239.46 225.94 165.76 225.94 165.76 242.33 201.37 242.33 164.45 276.78 164.45 290.52 239.36 290.52 239.36 274.06 202.12 274.06 239.46 239.73 239.46 225.94"/><path class="cls-1" d="M122.31,292.17c29.51,0,37.04-7.57,37.04-24.17v-42.06h-23.32v39.56c0,6.67-5.71,10.6-13.72,10.6s-13.65-3.97-13.65-10.7v-39.46h-23.39v42.06c0,16.61,7.58,24.17,37.04,24.17"/><path class="cls-1" d="M282.28,292.17c29.54,0,37.05-7.57,37.05-24.17v-42.06h-23.41v39.56c0,6.67-5.66,10.6-13.65,10.6s-13.67-3.97-13.67-10.7v-39.46h-23.37v42.06c0,16.61,7.58,24.17,37.04,24.17"/><rect class="cls-1" x="411.58" y="225.94" width="24.37" height="64.58"/><polygon class="cls-1" points="407.9 225.94 375.85 225.94 349.88 248.23 349.88 225.94 325.55 225.94 325.55 290.52 349.88 290.52 349.88 267.61 373.98 290.52 406.7 290.52 371.08 257.39 407.9 225.94"/><path class="cls-1" d="M27.7,243.8c0-4.99,7.44-5.15,9.92-5.15s8.12.99,11.95,7.28h27.56c0-12.17-11.54-21.83-39.45-21.83-30.99,0-36.28,13.61-36.28,21.41,0,14.43,11.19,18.63,35.47,21.21,2.04.22,14.67-.37,14.67,5.69,0,4.52-7.12,4.79-9.71,4.79s-7.46-.41-11.45-7.55H0c0,14.16,9.6,22.38,41.79,22.38,29.65,0,37.5-12.11,37.5-21.32s-6.12-18.03-31.4-21.27c-10.53-1.35-20.19-1.93-20.19-5.63"/></svg>