<svg xmlns="http://www.w3.org/2000/svg" viewBox="0 0 60 30"><rect width="60" height="30" fill="#b22234"/><g fill="#fff"><rect y="2.5" width="60" height="2.5"/><rect y="7.5" width="60" height="2.5"/><rect y="12.5" width="60" height="2.5"/><rect y="17.5" width="60" height="2.5"/><rect y="22.5" width="60" height="2.5"/><rect y="27.5" width="60" height="2.5"/></g><rect width="25" height="15" fill="#3c3b6e"/><g fill="#fff"><circle cx="3" cy="3" r="1"/><circle cx="7" cy="3" r="1"/><circle cx="11" cy="3" r="1"/><circle cx="15" cy="3" r="1"/><circle cx="19" cy="3" r="1"/><circle cx="23" cy="3" r="1"/><circle cx="5" cy="6" r="1"/><circle cx="9" cy="6" r="1"/><circle cx="13" cy="6" r="1"/><circle cx="17" cy="6" r="1"/><circle cx="21" cy="6" r="1"/><circle cx="3" cy="9" r="1"/><circle cx="7" cy="9" r="1"/><circle cx="11" cy="9" r="1"/><circle cx="15" cy="9" r="1"/><circle cx="19" cy="9" r="1"/><circle cx="23" cy="9" r="1"/><circle cx="5" cy="12" r="1"/><circle cx="9" cy="12" r="1"/><circle cx="13" cy="12" r="1"/><circle cx="17" cy="12" r="1"/><circle cx="21" cy="12" r="1"/></g></svg>